<svg width="36" height="36" viewBox="0 0 36 36" fill="none" xmlns="http://www.w3.org/2000/svg">
<path d="M4.5 16.5V17C4.5 18.8856 4.5 19.8284 5.08579 20.4142C5.67157 21 6.61438 21 8.5 21H10.5585C11.2542 21 11.6021 21 11.864 21.1888C12.1258 21.3775 12.2358 21.7075 12.4558 22.3675L13.0442 24.1325C13.2642 24.7925 13.3742 25.1225 13.636 25.3112C13.8979 25.5 14.2458 25.5 14.9415 25.5H21.0585C21.7542 25.5 22.1021 25.5 22.364 25.3112C22.6258 25.1225 22.7358 24.7925 22.9558 24.1325L23.5442 22.3675C23.7642 21.7075 23.8742 21.3775 24.136 21.1888C24.3979 21 24.7458 21 25.4415 21H27.5C29.3856 21 30.3284 21 30.9142 20.4142C31.5 19.8284 31.5 18.8856 31.5 17V16.5" stroke="#8E78B5" stroke-width="2"/>
<path d="M31.5 29.5V6.5C31.5 5.39543 30.6046 4.5 29.5 4.5H6.5C5.39543 4.5 4.5 5.39543 4.5 6.5V29.5C4.5 30.6046 5.39543 31.5 6.5 31.5H29.5C30.6046 31.5 31.5 30.6046 31.5 29.5Z" stroke="#8E78B5" stroke-width="2"/>
<path d="M12.75 14.25L18 10.5M18 10.5L23.25 14.25M18 10.5L18 19.5" stroke="#8E78B5" stroke-width="2"/>
</svg>
